PathFileType	4	(X/Y/Z)	C:/Users/opensim2020/Desktop/walking_exp_matlab/subject06_walking11_run_cyclic.trc	
DataRate	CameraRate	NumFrames	NumMarkers	Units	OrigDataRate	OrigDataStartFrame	OrigNumFrames	
100.00	100.00	5	46	mm	100.00	259	66	
Frame#	Time	LKNE			RKNE			RFRM			RWRA			RWRB			RELB			RUPA			RSHO			LWRA			RFIN			RFHD			CLAV			RASI			RTHI			LSHO			LTHI			RBHD			C7			LTIB			LANK			LTOE			LBHD			RTIB			RBAK			LHEE			RANK			STRN			RHEE			RTOE			T10			LUPA			LFHD			LPSI			RPSI			LASI			LFRM			LWRB			LFIN			LELB			*39			*40			*41			*42			*43			*44			*45			
		X1	Y1	Z1	X2	Y2	Z2	X3	Y3	Z3	X4	Y4	Z4	X5	Y5	Z5	X6	Y6	Z6	X7	Y7	Z7	X8	Y8	Z8	X9	Y9	Z9	X10	Y10	Z10	X11	Y11	Z11	X12	Y12	Z12	X13	Y13	Z13	X14	Y14	Z14	X15	Y15	Z15	X16	Y16	Z16	X17	Y17	Z17	X18	Y18	Z18	X19	Y19	Z19	X20	Y20	Z20	X21	Y21	Z21	X22	Y22	Z22	X23	Y23	Z23	X24	Y24	Z24	X25	Y25	Z25	X26	Y26	Z26	X27	Y27	Z27	X28	Y28	Z28	X29	Y29	Z29	X30	Y30	Z30	X31	Y31	Z31	X32	Y32	Z32	X33	Y33	Z33	X34	Y34	Z34	X35	Y35	Z35	X36	Y36	Z36	X37	Y37	Z37	X38	Y38	Z38	X39	Y39	Z39	X40	Y40	Z40	X41	Y41	Z41	X42	Y42	Z42	X43	Y43	Z43	X44	Y44	Z44	X45	Y45	Z45	X46	Y46	Z46	

45	0.440	86.36259	831.35101	524.85333	332.67322	1141.19470	584.24841	460.08783	855.71143	1219.52222	399.53241	985.67841	1217.21765	431.20581	973.31207	1160.38354	471.34918	777.21436	1284.44788	428.40833	837.91522	1368.11865	344.97745	990.99951	1457.46765	72.48145	1145.46741	1280.18005	420.09744	1056.76111	1171.22205	282.28430	1083.44128	1686.83386	212.64064	1077.57520	1405.86487	317.29767	1043.20203	997.22003	375.36832	1074.70178	684.74713	50.32707	1053.15759	1452.52332	57.26746	892.57745	679.85938	265.62305	957.54968	1625.37952	184.03687	975.83020	1486.56067	94.45088	600.48181	409.49884	127.78823	451.06061	325.06989	159.39970	447.73685	175.10486	136.98380	969.30688	1632.49658	306.32425	1199.81848	335.14410	233.15346	878.58246	1336.25806	169.89644	428.26303	361.11603	242.85310	1254.87463	164.04875	215.84526	1105.60010	1225.33484	195.68619	1221.45532	152.48300	221.14609	1414.62012	114.47403	185.60501	906.49634	1172.52234	-60.46666	1047.77844	1285.67090	150.96896	1095.42310	1699.53223	120.66149	906.12457	1033.62500	287.14154	903.16272	1037.81482	106.89991	1052.62109	978.15680	-12.73421	1123.75378	1187.52844	89.64307	1172.20459	1217.31165	141.48799	1211.50220	1281.02832	-105.53490	1034.12842	1186.95581				199.55562	986.70313	1728.03296															 
46	0.450	83.80273	882.58221	518.73053	331.13873	1175.53333	578.55670	460.56277	900.00366	1211.45508	398.68643	1029.35413	1212.04675	430.39148	1018.25482	1154.77246	472.48489	820.46588	1275.39294	430.30234	878.95880	1361.32727	345.90466	1029.88318	1454.26721	71.64510	1183.97742	1276.38916	418.23676	1101.29834	1166.68811	283.69873	1122.86035	1684.85571	212.73854	1116.25317	1403.79138	315.61032	1083.04578	995.47144	373.88586	1110.48950	680.24677	50.61052	1091.22559	1451.00000	55.27321	939.46991	675.46490	267.38861	996.40247	1623.44592	185.11374	1013.71393	1484.36047	92.83038	648.50024	412.75137	125.76699	495.41748	335.12973	154.78836	490.34604	185.77838	138.57030	1006.96039	1630.48438	303.49612	1230.03638	328.23959	233.79337	915.88208	1333.53479	168.26999	472.82712	371.49612	239.14975	1283.44092	156.83096	215.45193	1144.47412	1223.93298	192.13081	1249.95886	146.65926	215.94357	1442.31055	103.81364	184.65518	945.18396	1169.37476	-60.71616	1083.84558	1284.57288	151.80045	1133.40381	1697.48486	119.37337	945.89197	1030.62817	285.89896	942.69989	1035.40125	105.04756	1093.24377	977.20227	-14.56702	1160.37769	1184.97314	87.43283	1210.60217	1213.14026	139.33693	1251.28271	1275.95007	-105.88325	1069.29199	1186.26990				201.29178	1025.14832	1726.07385															 
47	0.460	81.23409	934.80841	511.25687	329.94357	1209.96106	572.82861	461.06693	944.78241	1202.20715	397.99197	1073.72314	1205.61633	428.97192	1063.49231	1147.85059	474.12726	864.57709	1264.81775	432.42337	920.08295	1352.66724	346.75226	1068.78381	1449.89355	70.76521	1222.19739	1271.08203	416.32428	1146.48035	1161.22131	283.64655	1160.81616	1681.42334	212.81494	1154.82214	1400.69775	314.15137	1122.77026	993.34290	371.74435	1147.30383	676.88934	51.08848	1129.10962	1448.47290	53.52744	987.45087	669.40411	269.13116	1035.00793	1620.34094	186.69069	1052.19788	1480.81653	91.08988	698.88458	413.56073	123.41022	542.41510	343.62820	150.11089	535.10492	194.72749	140.27019	1044.73840	1627.53577	300.15915	1257.26648	319.92661	234.41211	954.92688	1329.69836	166.24606	519.81665	380.19745	235.08362	1307.01172	147.77452	214.63617	1183.07288	1220.95605	187.66568	1273.33899	139.64766	210.41817	1463.97192	89.46409	184.49533	987.83502	1164.93018	-61.11174	1119.72485	1282.87817	152.58479	1171.41113	1694.43579	117.62627	985.95935	1026.55225	283.94925	981.84821	1032.47375	103.38739	1133.72827	975.02448	-16.62611	1196.30591	1181.26550	84.70540	1248.81177	1207.39355	136.58586	1291.15955	1268.88489	-106.08308	1103.55273	1184.84277				202.86537	1063.37561	1723.03918															 
48	0.470	78.56636	987.81287	502.88757	328.77863	1244.25146	567.00507	462.15720	990.65765	1191.89612	397.20230	1118.59644	1197.93213	430.01309	1110.98804	1140.43030	476.21939	909.29303	1252.75000	435.20645	961.94672	1342.48315	347.63840	1107.83215	1444.41040	69.60118	1260.19067	1264.24951	414.29874	1192.35181	1154.59644	284.81924	1200.10217	1677.56030	212.84009	1193.44910	1396.60339	313.01501	1162.37134	990.70294	369.18024	1184.95422	673.87823	51.57957	1166.79602	1444.99060	51.31511	1035.52002	662.41772	271.01596	1073.79285	1616.36707	187.68739	1090.10974	1476.54272	88.57668	751.16315	412.42847	120.56837	591.69678	350.01407	144.77913	582.37579	201.66052	142.09859	1082.40222	1623.58826	296.48663	1282.11804	310.50983	235.14680	994.92975	1324.92200	164.01834	569.63770	386.77182	230.44226	1325.57507	137.36440	211.97717	1220.61536	1216.40564	182.76535	1292.31470	131.35030	205.49306	1480.18213	73.06230	181.92340	1023.33325	1161.51868	-61.17163	1154.52161	1280.24866	153.27599	1209.18079	1690.40991	115.39706	1026.21973	1021.60583	281.31836	1020.85352	1028.66724	101.87623	1174.02307	971.53851	-18.90486	1231.41333	1176.37415	81.60412	1286.33313	1199.98376	133.26094	1330.89343	1259.91272	-106.08736	1137.01855	1182.59253				204.67210	1101.74231	1719.09229															 
49	0.480	75.59885	1041.71936	493.79031	326.94977	1278.79749	561.55164	463.27536	1037.19788	1180.34839	396.37109	1163.98193	1188.94495	427.14240	1156.79016	1130.81726	478.75732	954.85913	1239.46558	438.30637	1004.28436	1330.85010	348.59070	1146.78003	1437.80237	67.97741	1297.76416	1255.86597	412.15311	1238.70654	1146.94348	285.14215	1238.93518	1672.64270	212.93141	1232.17139	1391.53979	311.99271	1201.81665	987.34070	366.29709	1223.14697	670.69873	52.06181	1204.09668	1440.54114	49.21954	1083.74817	654.58405	273.04504	1112.61914	1611.52026	189.34093	1128.09229	1471.41797	85.58897	804.74017	409.70435	117.83691	643.18237	354.22055	138.91669	632.17566	206.42282	144.02148	1119.88440	1618.67480	293.16339	1305.17688	300.57947	235.64952	1033.16895	1319.94336	161.71870	621.56622	390.96518	226.58994	1340.32874	126.26518	212.60387	1260.40540	1211.96606	178.23363	1306.94373	121.48785	201.02478	1491.62817	55.46346	180.20638	1062.77856	1156.89172	-61.18068	1188.88257	1276.60754	153.81921	1246.83691	1685.49219	112.75637	1066.83008	1015.71497	278.18005	1059.90039	1023.91498	100.02018	1214.54248	966.89459	-21.50258	1265.66675	1170.28027	77.82963	1323.71545	1190.91260	129.20575	1370.40344	1249.17554	-106.38805	1169.60571	1179.67627				206.40240	1139.85742	1714.17908															 
